<?xml version="1.0" encoding="UTF-8"?>
<svg id="Layer_1" data-name="Layer 1" xmlns="http://www.w3.org/2000/svg" viewBox="0 0 93.54 150.24">
  <defs>
    <style>
      .cls-1 {
        stroke-width: 0px;
      }
    </style>
  </defs>
  <path class="cls-1" d="m80.79,2.42c5.7,0,10.34,4.64,10.34,10.34v124.72c0,5.7-4.64,10.34-10.34,10.34H12.76c-5.7,0-10.34-4.64-10.34-10.34V12.76C2.42,7.06,7.06,2.42,12.76,2.42h68.03m0-1H12.76C6.49,1.42,1.42,6.49,1.42,12.76v124.72c0,6.26,5.08,11.34,11.34,11.34h68.03c6.26,0,11.34-5.08,11.34-11.34V12.76c0-6.26-5.08-11.34-11.34-11.34h0Z"/>
</svg>